<svg xmlns="http://www.w3.org/2000/svg" height="220" width="465" viewBox="0 0 465 220">
    <path
        d="M86.18 147.24c-23.61 0.49 -45.02 -13.81 -53.59 -35.82 -8.58 -22.01 -2.49 -47.03 15.24 -62.64S91.15 30.3 111.9 41.6l-9.15 16.79c-13.69 -7.45 -30.58 -5.56 -42.28 4.74s-15.72 26.82 -10.06 41.34a37.14 37.14 0 0 0 35.37 23.65Z"
        fill="#04b1f0" pointer-events="all" />
    <path d="M5.21 61.69C16.1 32.05 42.53 10.89 73.83 6.74l2.46 18.53a66.3 66.3 0 0 0 -53.52 42.87Z" fill="#6fad9a"
        pointer-events="all" />
    <path pointer-events="all" d="M110 91a25 25 0 0 1 -25 25 25 25 0 0 1 -25 -25 25 25 0 0 1 50 0" fill="#474747"/>
    <path
        d="M163.63 58.71c13.09 31.87 5.64 68.48 -18.85 92.71s-61.18 31.29 -92.91 17.86S-0.34 124.6 0 90.15l18.7 0.19c-0.27 26.87 15.71 51.24 40.46 61.72 24.75 10.47 53.37 4.97 72.47 -13.93s24.91 -47.46 14.7 -72.32Z"
        fill="#645e90" pointer-events="all" />
    <path d="M177.234 55.724 141.88 91.08l-50.05 -6.52 -6.52 -50.049L120.666 -0.844l6.52 50.049Z"
        pointer-events="all" fill="#474747"/>
    <path d="M139.57 104.64a56.24 56.24 0 0 1 -29.7 36.81l-8.46 -17.15a37.15 37.15 0 0 0 19.61 -24.3Z" fill="#f33"
        pointer-events="all" /><text x="180" y="150" font-family="Helvetica, sans-serif" font-weight="bold"
        font-size="70" fill="black">
        scoring
    </text><text x="140" y="215" font-family="Helvetica, sans-serif" font-weight="bold" font-size="70" fill="black">
        rules
    </text>
</svg>
